<svg width="32" height="32" viewBox="0 0 32 32" fill="none" xmlns="http://www.w3.org/2000/svg">
<path d="M18.9897 18.8798C21.8122 18.8798 24.1002 16.4677 24.1002 13.4922C24.1002 10.5167 21.8122 8.10464 18.9897 8.10464C16.1672 8.10464 13.8791 10.5167 13.8791 13.4922C13.8791 16.4677 16.1672 18.8798 18.9897 18.8798Z" fill="#FFC433"/>
<path d="M24.1002 13.4924C24.1002 16.4675 21.8124 18.8798 18.9898 18.8798C18.1732 18.8798 17.402 18.6781 16.718 18.3192C17.1031 18.4177 17.5059 18.4696 17.9197 18.4696C20.7423 18.4696 23.0301 16.0572 23.0301 13.0821C23.0301 10.9662 21.8736 9.1356 20.1904 8.2542C22.4336 8.82329 24.1002 10.9524 24.1002 13.4924Z" fill="#FFB322"/>
<path d="M15.1981 25.4653C17.5488 25.4653 19.4917 23.4743 19.4949 20.9962C19.4977 18.7776 17.9689 16.9361 15.9616 16.5787C15.853 16.5593 15.7681 16.4699 15.7495 16.3554C15.2958 13.5689 12.9838 11.4519 10.2064 11.4738C7.13517 11.498 4.64073 14.1727 4.66773 17.4104C4.66983 17.6625 4.68697 17.9107 4.71827 18.1543C4.73587 18.2912 4.65633 18.4224 4.52945 18.457C3.05481 18.8593 1.97072 20.2845 2.00067 21.9721C2.03521 23.9201 3.57589 25.4652 5.42407 25.4652H15.1981V25.4653Z" fill="#A2DBFF"/>
<path d="M19.4946 20.9962C19.4925 22.8307 18.4273 24.3979 16.9204 25.0882C17.851 24.2703 18.4471 23.0477 18.4486 21.676C18.4512 19.4575 17.027 17.8897 15.0197 17.532C14.9111 17.5128 14.8264 17.4236 14.8076 17.3091C14.354 14.5225 11.9372 12.132 9.15987 12.1534C8.32954 12.1599 7.54125 12.3604 6.83356 12.7137C7.76837 11.9463 8.938 11.484 10.2064 11.4741C12.9838 11.4521 15.2956 13.5688 15.7492 16.3554C15.7679 16.4698 15.8531 16.5592 15.9617 16.5789C17.969 16.9361 19.4978 18.7777 19.4946 20.9962Z" fill="#64CAFF"/>
<path d="M26.8405 25.1519C26.7823 23.7754 25.6943 22.6729 24.3873 22.6629C23.2208 22.6539 22.2394 23.4961 21.9687 24.6354C21.9584 24.6788 21.9074 24.6932 21.8767 24.6624C21.6587 24.4434 21.3637 24.3091 21.0389 24.3091C20.9225 24.3091 20.8101 24.3263 20.7036 24.3585C20.6654 24.3701 20.6281 24.3372 20.6332 24.2958C20.6511 24.1514 20.6573 24.0032 20.6506 23.8521C20.5939 22.5707 19.5986 21.5335 18.3826 21.4879C17.0419 21.4376 15.94 22.5685 15.94 23.9706C15.94 23.9712 15.94 23.9717 15.94 23.9723C15.94 24.0247 15.8801 24.0517 15.8458 24.0137C15.5535 23.6897 15.1406 23.4878 14.6831 23.4878C14.6734 23.4878 14.6637 23.4879 14.654 23.488C14.6266 23.4886 14.6033 23.4686 14.5984 23.4401C14.3776 22.1566 13.3026 21.1866 12.0166 21.2082C10.6638 21.231 9.54286 22.3752 9.48042 23.8001C9.47242 23.9832 9.48157 24.1625 9.50631 24.3364C9.51036 24.3647 9.49462 24.3913 9.46882 24.4004C8.79637 24.6368 8.31154 25.3058 8.31154 26.0942C8.31154 27.0801 9.06968 27.8793 9.9325 27.8793H24.3359C25.2382 27.8793 26.0871 27.3828 26.527 26.5523C26.7454 26.1399 26.862 25.6598 26.8405 25.1519Z" fill="#E6F6FF"/>
<path d="M26.5272 26.5521C26.146 27.2721 25.4576 27.7411 24.6933 27.8533C25.0282 27.6294 25.3124 27.3208 25.5118 26.9444C25.7302 26.532 25.8468 26.0519 25.8252 25.5442C25.7669 24.1678 24.6792 23.0651 23.3721 23.055C23.2561 23.054 23.1422 23.0619 23.0302 23.0773C23.4209 22.8115 23.8874 22.6591 24.3875 22.6628C25.6941 22.6728 26.7823 23.7755 26.8406 25.1519C26.8621 25.6596 26.7456 26.1397 26.5272 26.5521Z" fill="#D1EDFF"/>
<path d="M13.9208 12.8014C14.2424 10.1522 16.3893 8.10463 18.9897 8.10463C21.8122 8.10463 24.1003 10.5167 24.1003 13.4922C24.1003 14.5889 23.7895 15.6091 23.2556 16.4601" stroke="black" stroke-width="0.705403" stroke-miterlimit="10" stroke-linecap="round" stroke-linejoin="round"/>
<path d="M22.0539 17.8043C21.2295 18.4565 20.2118 18.8519 19.1077 18.8783" stroke="black" stroke-width="0.705403" stroke-miterlimit="10" stroke-linecap="round" stroke-linejoin="round"/>
<path d="M18.9897 4V6.18157" stroke="black" stroke-width="0.705403" stroke-miterlimit="10" stroke-linecap="round" stroke-linejoin="round"/>
<path d="M15.1168 6.42052L15.5223 7.16105" stroke="black" stroke-width="0.705403" stroke-miterlimit="10" stroke-linecap="round" stroke-linejoin="round"/>
<path d="M22.4571 19.8234L22.8626 20.5639" stroke="black" stroke-width="0.705403" stroke-miterlimit="10" stroke-linecap="round" stroke-linejoin="round"/>
<path d="M25.9244 13.4922H26.7355" stroke="black" stroke-width="0.705403" stroke-miterlimit="10" stroke-linecap="round" stroke-linejoin="round"/>
<path d="M22.4571 7.16105L22.8626 6.42052" stroke="black" stroke-width="0.705403" stroke-miterlimit="10" stroke-linecap="round" stroke-linejoin="round"/>
<path d="M11.1919 8.74608L12.984 9.83691" stroke="black" stroke-width="0.705403" stroke-miterlimit="10" stroke-linecap="round" stroke-linejoin="round"/>
<path d="M24.9953 17.1475L26.7875 18.2383" stroke="black" stroke-width="0.705403" stroke-miterlimit="10" stroke-linecap="round" stroke-linejoin="round"/>
<path d="M24.9953 9.83691L26.7875 8.74608" stroke="black" stroke-width="0.705403" stroke-miterlimit="10" stroke-linecap="round" stroke-linejoin="round"/>
<path d="M19.4371 21.7243C19.4748 21.4875 19.4945 21.2443 19.4948 20.9961C19.4977 18.7776 17.9689 16.936 15.9616 16.5786C15.8529 16.5593 15.768 16.4698 15.7494 16.3553C15.2957 13.5689 12.9838 11.4519 10.2064 11.4737C8.87091 11.4842 7.64449 11.9959 6.68703 12.8371" stroke="black" stroke-width="0.705403" stroke-miterlimit="10" stroke-linecap="round" stroke-linejoin="round"/>
<path d="M5.54694 14.1988C4.98222 15.1276 4.65782 16.2317 4.66767 17.4104C4.66977 17.6625 4.68691 17.9107 4.71821 18.1543C4.73581 18.2912 4.65627 18.4224 4.52939 18.457C3.05475 18.8593 1.97066 20.2845 2.00061 21.9721C2.03515 23.9201 3.57583 25.4652 5.42401 25.4652H8.41962" stroke="black" stroke-width="0.705403" stroke-miterlimit="10" stroke-linecap="round" stroke-linejoin="round"/>
<path d="M26.8405 25.1519C26.7823 23.7754 25.6943 22.6729 24.3873 22.6629C23.2207 22.6539 22.2393 23.4961 21.9687 24.6354C21.9584 24.6788 21.9074 24.6932 21.8766 24.6623C21.6587 24.4434 21.3637 24.3091 21.0389 24.3091C20.9225 24.3091 20.81 24.3263 20.7036 24.3585C20.6654 24.3701 20.6281 24.3372 20.6332 24.2958C20.6511 24.1514 20.6573 24.0031 20.6506 23.8521C20.5939 22.5707 19.5986 21.5335 18.3826 21.4879C17.0418 21.4376 15.94 22.5685 15.94 23.9706C15.94 23.9712 15.94 23.9717 15.94 23.9723C15.94 24.0247 15.8801 24.0517 15.8458 24.0137C15.5535 23.6897 15.1406 23.4878 14.683 23.4878C14.6733 23.4878 14.6636 23.4879 14.654 23.488C14.6266 23.4886 14.6033 23.4686 14.5984 23.4401C14.3775 22.1566 13.3026 21.1866 12.0166 21.2082C10.6638 21.231 9.54284 22.3752 9.4804 23.8001C9.4724 23.9832 9.48155 24.1625 9.5063 24.3364C9.51035 24.3647 9.4946 24.3913 9.4688 24.4004C8.79635 24.6368 8.31152 25.3058 8.31152 26.0942C8.31152 27.0801 9.06966 27.8793 9.93249 27.8793H24.3359C25.2381 27.8793 26.0871 27.3828 26.527 26.5523C26.7454 26.1399 26.862 25.6598 26.8405 25.1519Z" stroke="black" stroke-width="0.705403" stroke-miterlimit="10" stroke-linecap="round" stroke-linejoin="round"/>
</svg>
