<svg id="Layer_1" enable-background="new 0 0 74 74" height="512" viewBox="0 0 74 74" width="512" xmlns="http://www.w3.org/2000/svg"><g><g><circle cx="37" cy="37" fill="#34495e" r="32"/></g><g><path d="m36.99 67c-16.54 0-30-13.46-30-30s13.46-30 30-30c16.55 0 30.02 13.46 30.02 30s-13.47 30-30.02 30z" fill="#d4ebfb"/></g><g><g><path d="m27.84 45h18.31v9.01h-18.31z" fill="#fff"/></g><g><path d="m27.84 45h18.31v9.01h-18.31z" fill="#fff"/></g><g opacity=".1"><path d="m46.15 45v8.78c-5.49-3.67-11.78-6.13-18.31-7.14v-1.64z"/></g><g><path d="m32.43 45h9.15v9.01h-9.15z" fill="#bfc2c7"/></g><g opacity=".1"><path d="m40.4 54c-1.97-3.03-4.76-5.54-7.98-7.16v-1.84h9.15v9z"/></g><g><path d="m41.58 54.51h-9.15c-.28 0-.5-.22-.5-.5v-9.01c0-.28.22-.5.5-.5h9.15c.28 0 .5.22.5.5v9.01c0 .27-.23.5-.5.5zm-8.65-1h8.15v-8.01h-8.15z" fill="#34495e"/></g><g><path d="m46.16 54.51h-18.32c-.28 0-.5-.22-.5-.5v-9.01c0-.28.22-.5.5-.5h18.31c.28 0 .5.22.5.5v9.01c.01.27-.22.5-.49.5zm-17.82-1h17.31v-8.01h-17.31z" fill="#34495e"/></g><g><path d="m46.15 57.45v8.12c-2.89.93-5.97 1.43-9.16 1.43s-6.27-.5-9.15-1.43v-8.12z" fill="#fff"/></g><g opacity=".1"><path d="m46.15 57.45v8.12c-.62.2-1.25.38-1.88.54-2.52-1.68-5.07-3.29-7.8-4.59-2.72-1.31-5.64-2.28-8.63-2.64v-1.43z"/></g><g><path d="m41.57 57.45v9.2c-1.49.23-3.02.35-4.58.35-1.55 0-3.08-.12-4.57-.35v-9.2z" fill="#bfc2c7"/></g><g opacity=".1"><path d="m41.57 57.45v9.2c-.32.05-.64.09-.96.13-1.98-3.18-4.85-5.81-8.19-7.49v-1.84z"/></g><g><path d="m41.58 68.15c-.28 0-.5-.22-.5-.5v-9.69h-8.15v9.69c0 .28-.22.5-.5.5s-.5-.22-.5-.5v-10.2c0-.28.22-.5.5-.5h9.15c.28 0 .5.22.5.5v10.19c0 .28-.23.51-.5.51z" fill="#34495e"/></g><g><path d="m46.16 66.94c-.28 0-.5-.22-.5-.5v-8.49h-17.32v8.49c0 .28-.22.5-.5.5s-.5-.22-.5-.5v-8.99c0-.28.22-.5.5-.5h18.31c.28 0 .5.22.5.5v8.99c.01.28-.22.5-.49.5z" fill="#34495e"/></g><g><path d="m25.61 54.01h22.77v3.45h-22.77z" fill="#fff"/></g><g opacity=".1"><path d="m48.38 54v3.45h-11.45c1.05-.99 1.95-2.16 2.61-3.45z"/></g><g><path d="m25.61 41.55h22.77v3.45h-22.77z" fill="#fff"/></g><g opacity=".1"><path d="m48.38 41.55v3.45h-11.45c1.05-.99 1.95-2.16 2.61-3.45z"/></g><g><path d="m48.39 57.95h-22.78c-.28 0-.5-.22-.5-.5v-3.45c0-.28.22-.5.5-.5h22.77c.28 0 .5.22.5.5v3.45c.01.28-.22.5-.49.5zm-22.28-1h21.77v-2.45h-21.77z" fill="#34495e"/></g><g><path d="m48.39 45.5h-22.78c-.28 0-.5-.22-.5-.5v-3.45c0-.28.22-.5.5-.5h22.77c.28 0 .5.22.5.5v3.45c.01.27-.22.5-.49.5zm-22.28-1h21.77v-2.45h-21.77z" fill="#34495e"/></g><g><path d="m38.88 49.51c0 1.03-.84 1.87-1.89 1.87-1.03 0-1.87-.84-1.87-1.87 0-1.05.84-1.89 1.87-1.89 1.05 0 1.89.84 1.89 1.89z" fill="#808b8d"/></g><g><path d="m36.99 51.88c-1.31 0-2.37-1.07-2.37-2.37 0-1.32 1.07-2.39 2.37-2.39 1.32 0 2.39 1.07 2.39 2.39 0 1.31-1.07 2.37-2.39 2.37zm0-3.76c-.76 0-1.37.62-1.37 1.39 0 .76.62 1.37 1.37 1.37.77 0 1.39-.62 1.39-1.37 0-.77-.62-1.39-1.39-1.39z" fill="#34495e"/></g><g><path d="m41.58 26.31h4.58v15.24h-4.58z" fill="#fff"/></g><g opacity=".1"><path d="m46.15 31.52v10.03h-4.58v-2.27c1.8-2.41 3.34-5.02 4.58-7.76z"/></g><g><path d="m46.16 42.05h-4.58c-.28 0-.5-.22-.5-.5v-15.24c0-.28.22-.5.5-.5h4.58c.28 0 .5.22.5.5v15.24c0 .28-.23.5-.5.5zm-4.08-1h3.58v-14.24h-3.58z" fill="#34495e"/></g><g><g><path d="m46.16 26.31h-4.58l2.29-9.35z" fill="#f15a24"/></g><g opacity=".1"><path d="m46.15 26.31h-4.58l.51-2.09c1.13-.57 2.14-1.35 3-2.28z"/></g><g><path d="m46.16 26.81h-4.58c-.15 0-.3-.07-.39-.19s-.13-.28-.09-.43l2.29-9.34c.06-.22.26-.38.49-.38.23 0 .43.16.49.38l2.29 9.34c.04.15 0 .31-.09.43s-.26.19-.41.19zm-3.95-1h3.3l-1.65-6.74z" fill="#34495e"/></g></g><g><g><path d="m40.58 24.93h-7.16l3.58-16.48z" fill="#f15a24"/></g><g opacity=".1"><path d="m40.58 24.92h-7.17l.65-3c1.87-1.26 3.52-2.84 4.86-4.65z"/></g><g><path d="m40.58 25.43h-7.16c-.15 0-.29-.07-.39-.19s-.13-.27-.1-.42l3.58-16.48c.05-.23.25-.39.49-.39s.44.16.49.39l3.58 16.48c.03.15 0 .3-.1.42-.09.12-.24.19-.39.19zm-6.54-1h5.92l-2.96-13.63z" fill="#34495e"/></g></g><g><g><path d="m32.43 26.31h-4.58l2.29-9.35z" fill="#f15a24"/></g><g opacity=".1"><path d="m32.43 26.31h-4.58l.51-2.09c1.13-.57 2.14-1.35 3-2.28z"/></g><g><path d="m32.43 26.81h-4.58c-.15 0-.3-.07-.39-.19s-.13-.28-.09-.43l2.29-9.34c.11-.45.86-.45.97 0l2.29 9.34c.04.15 0 .31-.09.43s-.25.19-.4.19zm-3.95-1h3.3l-1.65-6.74z" fill="#34495e"/></g></g><g><path d="m27.84 26.31h4.58v15.24h-4.58z" fill="#fff"/></g><g opacity=".1"><path d="m32.43 31.52v10.03h-4.58v-2.27c1.8-2.41 3.34-5.02 4.58-7.76z"/></g><g><path d="m32.43 42.05h-4.58c-.28 0-.5-.22-.5-.5v-15.24c0-.28.22-.5.5-.5h4.58c.28 0 .5.22.5.5v15.24c0 .28-.23.5-.5.5zm-4.09-1h3.58v-14.24h-3.58z" fill="#34495e"/></g><g><path d="m32.43 29.61h9.15v11.94h-9.15z" fill="#bfc2c7"/></g><g><path d="m38.94 35.46v6.09h-3.87v-6.09c0-1.07.87-1.93 1.93-1.93 1.07 0 1.94.86 1.94 1.93z" fill="#808b8d"/></g><g opacity=".1"><path d="m41.57 29.61v11.94h-9.15v-1.95c2.41-.22 4.69-1.77 6.1-3.88 1.21-1.79 1.87-3.92 2.17-6.11z"/></g><g><path d="m41.58 42.05h-9.15c-.28 0-.5-.22-.5-.5v-11.94c0-.28.22-.5.5-.5h9.15c.28 0 .5.22.5.5v11.94c0 .28-.23.5-.5.5zm-8.65-1h8.15v-10.94h-8.15z" fill="#34495e"/></g><g><path d="m33.42 24.93h7.16v4.65h-7.16z" fill="#f15a24"/></g><g opacity=".1"><path d="m40.58 25.36v4.21h-7.17v-1.28c1.34 0 2.69-.26 3.93-.77 1.2-.5 2.31-1.24 3.24-2.16z"/></g><g><path d="m40.58 30.08h-7.16c-.28 0-.5-.22-.5-.5v-4.65c0-.28.22-.5.5-.5h7.16c.28 0 .5.22.5.5v4.65c0 .27-.22.5-.5.5zm-6.66-1h6.16v-3.65h-6.16z" fill="#34495e"/></g><g><g><path d="m38.94 42.05h-3.87c-.28 0-.5-.22-.5-.5v-6.09c0-1.34 1.09-2.43 2.43-2.43s2.43 1.09 2.43 2.43v6.09c.01.28-.22.5-.49.5zm-3.37-1h2.87v-5.59c0-.79-.64-1.43-1.43-1.43s-1.43.64-1.43 1.43v5.59z" fill="#34495e"/></g></g></g><g><g><path d="m14.98 45.26c-.13 0-.26-.05-.35-.15l-.71-.71c-.2-.2-.2-.51 0-.71s.51-.2.71 0l.71.71c.2.2.2.51 0 .71-.11.1-.24.15-.36.15z" fill="#34495e"/></g><g><path d="m12.72 43c-.13 0-.26-.05-.35-.15l-.71-.71c-.2-.2-.2-.51 0-.71s.51-.2.71 0l.71.71c.2.2.2.51 0 .71-.1.11-.23.15-.36.15z" fill="#34495e"/></g><g><path d="m12.01 45.26c-.13 0-.26-.05-.35-.15-.2-.2-.2-.51 0-.71l.71-.71c.2-.2.51-.2.71 0s.2.51 0 .71l-.71.71c-.11.1-.23.15-.36.15z" fill="#34495e"/></g><g><path d="m14.26 43c-.13 0-.26-.05-.35-.15-.2-.2-.2-.51 0-.71l.71-.71c.2-.2.51-.2.71 0s.2.51 0 .71l-.71.71c-.1.11-.23.15-.36.15z" fill="#34495e"/></g></g><g><g><path d="m54.42 34.51c-.28 0-.5-.22-.5-.5v-1.01c0-.28.22-.5.5-.5s.5.22.5.5v1.01c0 .28-.22.5-.5.5z" fill="#34495e"/></g><g><path d="m54.42 31.32c-.28 0-.5-.22-.5-.5v-1.01c0-.28.22-.5.5-.5s.5.22.5.5v1.01c0 .28-.22.5-.5.5z" fill="#34495e"/></g><g><path d="m53.33 32.41h-1.01c-.28 0-.5-.22-.5-.5s.22-.5.5-.5h1.01c.28 0 .5.22.5.5s-.22.5-.5.5z" fill="#34495e"/></g><g><path d="m56.52 32.41h-1.01c-.28 0-.5-.22-.5-.5s.22-.5.5-.5h1.01c.28 0 .5.22.5.5s-.22.5-.5.5z" fill="#34495e"/></g></g><g><g><path d="m28.21 14.95c-.13 0-.26-.05-.35-.15l-.71-.71c-.2-.2-.2-.51 0-.71s.51-.2.71 0l.71.71c.2.2.2.51 0 .71-.11.1-.24.15-.36.15z" fill="#34495e"/></g><g><path d="m25.95 12.7c-.13 0-.26-.05-.35-.15l-.71-.71c-.2-.2-.2-.51 0-.71s.51-.2.71 0l.71.71c.2.2.2.51 0 .71-.1.1-.23.15-.36.15z" fill="#34495e"/></g><g><path d="m25.24 14.95c-.13 0-.26-.05-.35-.15-.2-.2-.2-.51 0-.71l.71-.71c.2-.2.51-.2.71 0s.2.51 0 .71l-.71.71c-.11.1-.23.15-.36.15z" fill="#34495e"/></g><g><path d="m27.49 12.7c-.13 0-.26-.05-.35-.15-.2-.2-.2-.51 0-.71l.71-.71c.2-.2.51-.2.71 0s.2.51 0 .71l-.71.71c-.1.1-.23.15-.36.15z" fill="#34495e"/></g></g><g><path d="m50.7 14.95h-2.31c-.28 0-.5-.22-.5-.5s.22-.5.5-.5h2.31c.28 0 .5.22.5.5s-.22.5-.5.5z" fill="#34495e"/></g><g><path d="m63.86 45.5h-2.31c-.28 0-.5-.22-.5-.5s.22-.5.5-.5h2.31c.28 0 .5.22.5.5s-.23.5-.5.5z" fill="#34495e"/></g><g><path d="m17.64 58.47h-2.31c-.28 0-.5-.22-.5-.5s.22-.5.5-.5h2.31c.28 0 .5.22.5.5s-.22.5-.5.5z" fill="#34495e"/></g><g><path d="m22.93 36.08h-2.31c-.28 0-.5-.22-.5-.5s.22-.5.5-.5h2.31c.28 0 .5.22.5.5s-.22.5-.5.5z" fill="#34495e"/></g><g><path d="m10.46 26.81h-2.31c-.28 0-.5-.22-.5-.5s.22-.5.5-.5h2.31c.28 0 .5.22.5.5s-.23.5-.5.5z" fill="#34495e"/></g><g><path d="m54.49 56.81h-2.31c-.28 0-.5-.22-.5-.5s.22-.5.5-.5h2.31c.28 0 .5.22.5.5s-.23.5-.5.5z" fill="#34495e"/></g></g></svg>