<svg width="240" height="72" viewBox="0 0 240 72" fill="none" xmlns="http://www.w3.org/2000/svg">
<path d="M50.9913 42.8047C58.5417 42.8047 64.6625 36.3522 64.6625 28.3925C64.6625 20.4328 58.5417 13.9803 50.9913 13.9803C43.4409 13.9803 37.3201 20.4328 37.3201 28.3925C37.3201 36.3522 43.4409 42.8047 50.9913 42.8047Z" fill="#FFC433"/>
<path d="M64.6625 28.3929C64.6625 36.3516 58.5424 42.8049 50.9916 42.8049C48.8073 42.8049 46.744 42.2653 44.9144 41.3052C45.9447 41.5686 47.0221 41.7074 48.129 41.7074C55.6798 41.7074 61.7999 35.2542 61.7999 27.2955C61.7999 21.6353 58.7062 16.7382 54.2035 14.3804C60.2041 15.9027 64.6625 21.5983 64.6625 28.3929Z" fill="#FFB322"/>
<path d="M40.8486 60.4215C47.1368 60.4215 52.3342 55.0955 52.3427 48.4662C52.3504 42.5315 48.2608 37.6053 42.891 36.6491C42.6004 36.5974 42.3732 36.3581 42.3235 36.0518C41.1098 28.5978 34.9251 22.9346 27.4953 22.9931C19.2794 23.0578 12.6066 30.2129 12.6788 38.8741C12.6844 39.5484 12.7303 40.2125 12.814 40.864C12.8611 41.2302 12.6483 41.5811 12.3089 41.6738C8.36414 42.75 5.46409 46.5625 5.5442 51.077C5.63661 56.2882 9.75805 60.4214 14.7021 60.4214H40.8486V60.4215Z" fill="#A2DBFF"/>
<path d="M52.342 48.4664C52.3364 53.3739 49.4869 57.5663 45.4559 59.4128C47.9454 57.225 49.5398 53.9543 49.5439 50.2849C49.5509 44.3502 45.7409 40.1562 40.3712 39.1994C40.0807 39.148 39.8541 38.9092 39.804 38.603C38.5905 31.1486 32.1253 24.7537 24.6957 24.8109C22.4745 24.8286 20.3658 25.3649 18.4726 26.31C20.9733 24.257 24.1022 23.0203 27.4953 22.9938C34.9249 22.9351 41.1092 28.5975 42.3228 36.0517C42.3728 36.358 42.6008 36.5969 42.8913 36.6497C48.261 37.6051 52.3505 42.5317 52.342 48.4664Z" fill="#64CAFF"/>
<path d="M71.9931 59.5833C71.8374 55.901 68.9269 52.9518 65.4306 52.9249C62.3098 52.9009 59.6845 55.1538 58.9605 58.2015C58.9329 58.3176 58.7965 58.3563 58.7143 58.2737C58.1312 57.688 57.342 57.3286 56.4731 57.3286C56.1619 57.3286 55.861 57.3747 55.5762 57.4609C55.4741 57.4918 55.3742 57.4039 55.388 57.293C55.4359 56.9068 55.4525 56.5102 55.4345 56.1062C55.2829 52.6783 52.6202 49.9036 49.3672 49.7816C45.7807 49.6471 42.8331 52.6724 42.8331 56.4232C42.8331 56.4246 42.8331 56.4262 42.8331 56.4276C42.8332 56.5679 42.6729 56.6402 42.5811 56.5386C41.7993 55.6718 40.6948 55.1315 39.4707 55.1315C39.4448 55.1315 39.4188 55.1318 39.393 55.1322C39.3197 55.1337 39.2574 55.0802 39.2443 55.0041C38.6535 51.5704 35.7779 48.9758 32.3378 49.0336C28.7188 49.0945 25.7202 52.1554 25.5532 55.967C25.5318 56.4568 25.5563 56.9364 25.6225 57.4017C25.6333 57.4775 25.5912 57.5486 25.5222 57.5728C23.7233 58.2053 22.4263 59.9949 22.4263 62.1039C22.4263 64.7413 24.4544 66.8793 26.7626 66.8793H65.2929C67.7066 66.8793 69.9775 65.5511 71.1543 63.3295C71.7386 62.2263 72.0504 60.9419 71.9931 59.5833Z" fill="#E6F6FF"/>
<path d="M71.1548 63.3289C70.1352 65.2549 68.2935 66.5095 66.249 66.8098C67.145 66.2108 67.9053 65.3852 68.4386 64.3783C69.0229 63.2751 69.3347 61.9907 69.2769 60.6326C69.1211 56.9507 66.2114 54.0008 62.7148 53.9739C62.4045 53.9711 62.0996 53.9924 61.8 54.0334C62.8452 53.3226 64.0931 52.9147 65.4311 52.9246C68.9264 52.9515 71.8374 55.9013 71.9932 59.5833C72.0508 60.9414 71.7391 62.2257 71.1548 63.3289Z" fill="#D1EDFF"/>
<path d="M37.4316 26.5446C38.292 19.4576 44.035 13.9803 50.9915 13.9803C58.5419 13.9803 64.6627 20.4328 64.6627 28.3925C64.6627 31.3262 63.8312 34.0553 62.4031 36.3319" stroke="black" stroke-width="1.88702" stroke-miterlimit="10" stroke-linecap="round" stroke-linejoin="round"/>
<path d="M59.1885 39.9277C56.9829 41.6724 54.2606 42.7303 51.3071 42.8009" stroke="black" stroke-width="1.88702" stroke-miterlimit="10" stroke-linecap="round" stroke-linejoin="round"/>
<path d="M50.9913 3V8.83589" stroke="black" stroke-width="1.88702" stroke-miterlimit="10" stroke-linecap="round" stroke-linejoin="round"/>
<path d="M40.631 9.47512L41.7159 11.4561" stroke="black" stroke-width="1.88702" stroke-miterlimit="10" stroke-linecap="round" stroke-linejoin="round"/>
<path d="M60.2669 45.3289L61.3518 47.3099" stroke="black" stroke-width="1.88702" stroke-miterlimit="10" stroke-linecap="round" stroke-linejoin="round"/>
<path d="M69.5424 28.3925H71.7121" stroke="black" stroke-width="1.88702" stroke-miterlimit="10" stroke-linecap="round" stroke-linejoin="round"/>
<path d="M60.2669 11.4561L61.3518 9.47512" stroke="black" stroke-width="1.88702" stroke-miterlimit="10" stroke-linecap="round" stroke-linejoin="round"/>
<path d="M30.1316 15.6962L34.9258 18.6143" stroke="black" stroke-width="1.88702" stroke-miterlimit="10" stroke-linecap="round" stroke-linejoin="round"/>
<path d="M67.057 38.1707L71.8512 41.0887" stroke="black" stroke-width="1.88702" stroke-miterlimit="10" stroke-linecap="round" stroke-linejoin="round"/>
<path d="M67.057 18.6143L71.8512 15.6962" stroke="black" stroke-width="1.88702" stroke-miterlimit="10" stroke-linecap="round" stroke-linejoin="round"/>
<path d="M52.1881 50.4142C52.289 49.7806 52.3418 49.13 52.3426 48.4661C52.3502 42.5314 48.2606 37.6051 42.8909 36.6489C42.6003 36.5972 42.3731 36.358 42.3233 36.0516C41.1097 28.5976 34.925 22.9344 27.4952 22.9929C23.9227 23.021 20.6419 24.3898 18.0806 26.6401" stroke="black" stroke-width="1.88702" stroke-miterlimit="10" stroke-linecap="round" stroke-linejoin="round"/>
<path d="M15.0308 30.2827C13.5201 32.7672 12.6523 35.7209 12.6787 38.8741C12.6843 39.5484 12.7302 40.2125 12.8139 40.864C12.861 41.2302 12.6482 41.5811 12.3088 41.6738C8.36399 42.75 5.46395 46.5625 5.54405 51.077C5.63647 56.2882 9.75791 60.4214 14.702 60.4214H22.7155" stroke="black" stroke-width="1.88702" stroke-miterlimit="10" stroke-linecap="round" stroke-linejoin="round"/>
<path d="M71.9931 59.5833C71.8374 55.901 68.9269 52.9518 65.4306 52.9249C62.3099 52.9009 59.6845 55.1538 58.9605 58.2015C58.9329 58.3176 58.7965 58.3563 58.7143 58.2737C58.1312 57.688 57.342 57.3286 56.4731 57.3286C56.1619 57.3286 55.861 57.3747 55.5762 57.4609C55.4741 57.4918 55.3742 57.4039 55.388 57.293C55.4359 56.9068 55.4525 56.5102 55.4345 56.1062C55.2829 52.6783 52.6202 49.9036 49.3673 49.7816C45.7808 49.6471 42.8331 52.6724 42.8331 56.4232C42.8331 56.4246 42.8331 56.4262 42.8331 56.4276C42.8332 56.5679 42.6729 56.6402 42.5811 56.5386C41.7993 55.6718 40.6948 55.1315 39.4707 55.1315C39.4448 55.1315 39.4188 55.1318 39.393 55.1322C39.3197 55.1337 39.2574 55.0802 39.2443 55.0041C38.6535 51.5704 35.7779 48.9758 32.3378 49.0336C28.7188 49.0945 25.7202 52.1554 25.5532 55.967C25.5318 56.4568 25.5563 56.9364 25.6225 57.4017C25.6333 57.4775 25.5912 57.5486 25.5222 57.5728C23.7233 58.2053 22.4263 59.9949 22.4263 62.1039C22.4263 64.7413 24.4544 66.8793 26.7626 66.8793H65.2929C67.7066 66.8793 69.9775 65.5511 71.1543 63.3295C71.7386 62.2263 72.0504 60.9419 71.9931 59.5833Z" stroke="black" stroke-width="1.88702" stroke-miterlimit="10" stroke-linecap="round" stroke-linejoin="round"/>
<path d="M85.5176 37.168C84.2856 37.168 83.1816 36.968 82.2056 36.568C81.2296 36.168 80.4456 35.576 79.8536 34.792C79.2776 34.008 78.9736 33.064 78.9416 31.96H83.3096C83.3736 32.584 83.5896 33.064 83.9576 33.4C84.3256 33.72 84.8056 33.88 85.3976 33.88C86.0056 33.88 86.4856 33.744 86.8376 33.472C87.1896 33.184 87.3656 32.792 87.3656 32.296C87.3656 31.88 87.2216 31.536 86.9336 31.264C86.6616 30.992 86.3176 30.768 85.9016 30.592C85.5016 30.416 84.9256 30.216 84.1736 29.992C83.0856 29.656 82.1976 29.32 81.5096 28.984C80.8216 28.648 80.2296 28.152 79.7336 27.496C79.2376 26.84 78.9896 25.984 78.9896 24.928C78.9896 23.36 79.5576 22.136 80.6936 21.256C81.8296 20.36 83.3096 19.912 85.1336 19.912C86.9896 19.912 88.4856 20.36 89.6216 21.256C90.7576 22.136 91.3656 23.368 91.4456 24.952H87.0056C86.9736 24.408 86.7736 23.984 86.4056 23.68C86.0376 23.36 85.5656 23.2 84.9896 23.2C84.4936 23.2 84.0936 23.336 83.7896 23.608C83.4856 23.864 83.3336 24.24 83.3336 24.736C83.3336 25.28 83.5896 25.704 84.1016 26.008C84.6136 26.312 85.4136 26.64 86.5016 26.992C87.5896 27.36 88.4696 27.712 89.1416 28.048C89.8296 28.384 90.4216 28.872 90.9176 29.512C91.4136 30.152 91.6616 30.976 91.6616 31.984C91.6616 32.944 91.4136 33.816 90.9176 34.6C90.4376 35.384 89.7336 36.008 88.8056 36.472C87.8776 36.936 86.7816 37.168 85.5176 37.168ZM106.307 20.152V23.44H101.843V37H97.7392V23.44H93.2752V20.152H106.307ZM116.335 37.168C114.751 37.168 113.295 36.8 111.967 36.064C110.655 35.328 109.607 34.304 108.823 32.992C108.055 31.664 107.671 30.176 107.671 28.528C107.671 26.88 108.055 25.4 108.823 24.088C109.607 22.776 110.655 21.752 111.967 21.016C113.295 20.28 114.751 19.912 116.335 19.912C117.919 19.912 119.367 20.28 120.679 21.016C122.007 21.752 123.047 22.776 123.799 24.088C124.567 25.4 124.951 26.88 124.951 28.528C124.951 30.176 124.567 31.664 123.799 32.992C123.031 34.304 121.991 35.328 120.679 36.064C119.367 36.8 117.919 37.168 116.335 37.168ZM116.335 33.424C117.679 33.424 118.751 32.976 119.551 32.08C120.367 31.184 120.775 30 120.775 28.528C120.775 27.04 120.367 25.856 119.551 24.976C118.751 24.08 117.679 23.632 116.335 23.632C114.975 23.632 113.887 24.072 113.071 24.952C112.271 25.832 111.871 27.024 111.871 28.528C111.871 30.016 112.271 31.208 113.071 32.104C113.887 32.984 114.975 33.424 116.335 33.424ZM126.538 28.552C126.538 26.888 126.898 25.408 127.618 24.112C128.338 22.8 129.338 21.784 130.618 21.064C131.914 20.328 133.378 19.96 135.01 19.96C137.01 19.96 138.722 20.488 140.146 21.544C141.57 22.6 142.522 24.04 143.002 25.864H138.49C138.154 25.16 137.674 24.624 137.05 24.256C136.442 23.888 135.746 23.704 134.962 23.704C133.698 23.704 132.674 24.144 131.89 25.024C131.106 25.904 130.714 27.08 130.714 28.552C130.714 30.024 131.106 31.2 131.89 32.08C132.674 32.96 133.698 33.4 134.962 33.4C135.746 33.4 136.442 33.216 137.05 32.848C137.674 32.48 138.154 31.944 138.49 31.24H143.002C142.522 33.064 141.57 34.504 140.146 35.56C138.722 36.6 137.01 37.12 135.01 37.12C133.378 37.12 131.914 36.76 130.618 36.04C129.338 35.304 128.338 34.288 127.618 32.992C126.898 31.696 126.538 30.216 126.538 28.552ZM155.283 37L149.619 29.56V37H145.515V20.152H149.619V27.544L155.235 20.152H160.059L153.531 28.408L160.299 37H155.283ZM176.842 20.152V37H172.738V30.064H166.354V37H162.25V20.152H166.354V26.752H172.738V20.152H176.842ZM187.772 37.168C186.188 37.168 184.732 36.8 183.404 36.064C182.092 35.328 181.044 34.304 180.26 32.992C179.492 31.664 179.108 30.176 179.108 28.528C179.108 26.88 179.492 25.4 180.26 24.088C181.044 22.776 182.092 21.752 183.404 21.016C184.732 20.28 186.188 19.912 187.772 19.912C189.356 19.912 190.804 20.28 192.116 21.016C193.444 21.752 194.484 22.776 195.236 24.088C196.004 25.4 196.388 26.88 196.388 28.528C196.388 30.176 196.004 31.664 195.236 32.992C194.468 34.304 193.428 35.328 192.116 36.064C190.804 36.8 189.356 37.168 187.772 37.168ZM187.772 33.424C189.116 33.424 190.188 32.976 190.988 32.08C191.804 31.184 192.212 30 192.212 28.528C192.212 27.04 191.804 25.856 190.988 24.976C190.188 24.08 189.116 23.632 187.772 23.632C186.412 23.632 185.324 24.072 184.508 24.952C183.708 25.832 183.308 27.024 183.308 28.528C183.308 30.016 183.708 31.208 184.508 32.104C185.324 32.984 186.412 33.424 187.772 33.424ZM202.776 33.832H208.152V37H198.672V20.152H202.776V33.832ZM229.189 20.152V37H225.085V26.896L221.317 37H218.005L214.213 26.872V37H210.109V20.152H214.957L219.685 31.816L224.365 20.152H229.189Z" fill="#FFC433"/>
<path d="M78.592 50.416C78.592 53.76 81.136 56.096 84.272 56.096C86.592 56.096 88.592 54.944 89.44 52.768H87.248C86.656 53.952 85.6 54.512 84.272 54.512C82.064 54.512 80.464 52.928 80.464 50.416C80.464 47.904 82.064 46.336 84.272 46.336C85.6 46.336 86.656 46.896 87.248 48.08H89.44C88.592 45.904 86.592 44.736 84.272 44.736C81.136 44.736 78.592 47.088 78.592 50.416ZM91.559 51.936C91.559 54.768 93.543 56.112 95.879 56.112C98.199 56.112 100.247 54.768 100.247 51.936V44.88H98.423V51.968C98.423 53.696 97.447 54.512 95.895 54.512C94.359 54.512 93.383 53.696 93.383 51.968V44.88H91.559V51.936ZM108.526 48.208C108.526 49.312 107.886 50.096 106.462 50.096H104.446V46.368H106.462C107.886 46.368 108.526 47.088 108.526 48.208ZM102.622 44.88V56H104.446V51.552H105.838L108.398 56H110.574L107.822 51.392C109.694 50.928 110.398 49.52 110.398 48.208C110.398 46.4 109.102 44.88 106.462 44.88H102.622ZM118.635 48.208C118.635 49.312 117.995 50.096 116.571 50.096H114.555V46.368H116.571C117.995 46.368 118.635 47.088 118.635 48.208ZM112.731 44.88V56H114.555V51.552H115.947L118.507 56H120.683L117.931 51.392C119.803 50.928 120.507 49.52 120.507 48.208C120.507 46.4 119.211 44.88 116.571 44.88H112.731ZM128.985 44.864H122.841V56H128.985V54.512H124.665V51.104H128.505V49.616H124.665V46.352H128.985V44.864ZM138.543 44.864V53.152L133.055 44.864H131.231V56H133.055V47.696L138.543 56H140.367V44.864H138.543ZM142.187 46.368H145.163V56H146.987V46.368H149.947V44.88H142.187V46.368ZM158.206 56.016L160.254 56L162.734 47.584L165.07 56H167.134L170.43 44.88H168.478L166.158 53.888L163.838 44.88H161.79L159.294 53.936L156.99 44.88H155.054L158.206 56.016ZM178.078 44.864H171.934V56H178.078V54.512H173.758V51.104H177.598V49.616H173.758V46.352H178.078V44.864ZM187.829 56H189.749L185.765 44.864H183.653L179.669 56H181.573L182.373 53.728H187.029L187.829 56ZM186.517 52.24H182.885L184.709 47.072L186.517 52.24ZM190.905 46.368H193.881V56H195.705V46.368H198.665V44.88H190.905V46.368ZM207.569 56H209.393V44.88H207.569V49.648H202.337V44.88H200.513V56H202.337V51.136H207.569V56ZM217.938 44.864H211.794V56H217.938V54.512H213.618V51.104H217.458V49.616H213.618V46.352H217.938V44.864ZM226.088 48.208C226.088 49.312 225.448 50.096 224.024 50.096H222.008V46.368H224.024C225.448 46.368 226.088 47.088 226.088 48.208ZM220.184 44.88V56H222.008V51.552H223.4L225.96 56H228.136L225.384 51.392C227.256 50.928 227.96 49.52 227.96 48.208C227.96 46.4 226.664 44.88 224.024 44.88H220.184Z" fill="#5097D8"/>
</svg>
