<?xml version="1.0" encoding="UTF-8"?>
<svg xmlns="http://www.w3.org/2000/svg" xmlns:xlink="http://www.w3.org/1999/xlink" version="1.1" id="Capa_1" x="0px" y="0px" viewBox="0 0 511.933 511.933" style="enable-background:new 0 0 511.933 511.933;" xml:space="preserve" width="512" height="512">
<g>
	<g>
		<circle style="fill:#FFC433;" cx="347.343" cy="209.527" r="102.226"/>
		<path style="fill:#FFB322;" d="M449.569,209.53c0,56.451-45.763,102.224-102.224,102.224c-16.333,0-31.761-3.827-45.442-10.637&#10;&#9;&#9;&#9;c7.704,1.868,15.76,2.853,24.037,2.853c56.461,0,102.224-45.773,102.224-102.224c0-40.148-23.133-74.883-56.802-91.607&#10;&#9;&#9;&#9;C416.231,120.937,449.569,161.336,449.569,209.53z"/>
		<path style="fill:#A2DBFF;" d="M271.501,436.709c47.02,0,85.883-37.778,85.947-84.799c0.057-42.095-30.523-77.037-70.675-83.819&#10;&#9;&#9;&#9;c-2.173-0.367-3.872-2.064-4.244-4.237c-9.075-52.871-55.321-93.04-110.877-92.625c-61.434,0.459-111.33,51.21-110.79,112.644&#10;&#9;&#9;&#9;c0.042,4.783,0.385,9.493,1.011,14.114c0.352,2.598-1.239,5.087-3.777,5.744c-29.497,7.634-51.182,34.676-50.583,66.697&#10;&#9;&#9;&#9;c0.691,36.963,31.509,66.28,68.478,66.28H271.501z"/>
		<path style="fill:#64CAFF;" d="M357.443,351.911c-0.042,34.809-21.349,64.546-51.491,77.643&#10;&#9;&#9;&#9;c18.615-15.518,30.537-38.717,30.568-64.744c0.052-42.095-28.437-71.843-68.589-78.63c-2.172-0.364-3.866-2.058-4.241-4.23&#10;&#9;&#9;&#9;c-9.074-52.874-57.417-98.233-112.972-97.827c-16.609,0.125-32.377,3.929-46.533,10.633&#10;&#9;&#9;&#9;c18.699-14.562,42.095-23.334,67.467-23.522c55.555-0.416,101.798,39.747,110.872,92.62c0.374,2.172,2.079,3.867,4.251,4.241&#10;&#9;&#9;&#9;C326.927,274.872,357.506,309.816,357.443,351.911z"/>
		<path style="fill:#E6F6FF;" d="M504.383,430.763c-1.164-26.118-22.927-47.037-49.071-47.228&#10;&#9;&#9;&#9;c-23.335-0.17-42.966,15.81-48.38,37.427c-0.206,0.824-1.226,1.098-1.841,0.512c-4.36-4.154-10.261-6.703-16.758-6.703&#10;&#9;&#9;&#9;c-2.327,0-4.577,0.327-6.707,0.938c-0.763,0.219-1.51-0.404-1.407-1.191c0.358-2.739,0.482-5.552,0.348-8.418&#10;&#9;&#9;&#9;c-1.134-24.314-21.044-43.995-45.368-44.86c-26.818-0.954-48.859,20.504-48.859,47.109c0,0.01,0,0.021,0,0.031&#10;&#9;&#9;&#9;c0.001,0.995-1.198,1.508-1.884,0.787c-5.846-6.148-14.105-9.98-23.258-9.98c-0.194,0-0.388,0.002-0.581,0.005&#10;&#9;&#9;&#9;c-0.548,0.01-1.014-0.369-1.112-0.909c-4.418-24.355-25.92-42.759-51.643-42.349c-27.061,0.432-49.483,22.143-50.732,49.179&#10;&#9;&#9;&#9;c-0.16,3.474,0.023,6.876,0.518,10.176c0.081,0.538-0.234,1.042-0.75,1.214c-13.451,4.486-23.149,17.18-23.149,32.139&#10;&#9;&#9;&#9;c0,18.707,15.165,33.872,32.424,33.872l288.11,0c18.048,0,35.029-9.421,43.828-25.179&#10;&#9;&#9;&#9;C502.48,449.51,504.812,440.4,504.383,430.763z"/>
		<path style="fill:#D1EDFF;" d="M498.115,457.331c-7.624,13.661-21.395,22.56-36.683,24.69c6.7-4.249,12.385-10.105,16.373-17.247&#10;&#9;&#9;&#9;c4.369-7.825,6.7-16.935,6.268-26.568c-1.165-26.116-22.922-47.039-49.068-47.23c-2.32-0.02-4.6,0.131-6.84,0.422&#10;&#9;&#9;&#9;c7.815-5.042,17.146-7.935,27.151-7.865c26.136,0.191,47.903,21.114,49.068,47.23&#10;&#9;&#9;&#9;C504.815,440.396,502.484,449.506,498.115,457.331z"/>
	</g>
	<g>
		<path style="fill:none;stroke:#000000;stroke-width:15;stroke-linecap:round;stroke-linejoin:round;stroke-miterlimit:10;" d="&#10;&#9;&#9;&#9;M245.95,196.42c6.434-50.268,49.377-89.119,101.394-89.119c56.458,0,102.226,45.768,102.226,102.226&#10;&#9;&#9;&#9;c0,20.809-6.217,40.166-16.896,56.314"/>
		<path style="fill:none;stroke:#000000;stroke-width:15;stroke-linecap:round;stroke-linejoin:round;stroke-miterlimit:10;" d="&#10;&#9;&#9;&#9;M408.637,291.346c-16.492,12.375-36.848,19.879-58.933,20.38"/>
		<g>
			
				<line style="fill:none;stroke:#000000;stroke-width:15;stroke-linecap:round;stroke-linejoin:round;stroke-miterlimit:10;" x1="347.343" y1="29.418" x2="347.343" y2="70.812"/>
		</g>
		<g>
			
				<line style="fill:none;stroke:#000000;stroke-width:15;stroke-linecap:round;stroke-linejoin:round;stroke-miterlimit:10;" x1="269.874" y1="75.346" x2="277.986" y2="89.397"/>
			
				<line style="fill:none;stroke:#000000;stroke-width:15;stroke-linecap:round;stroke-linejoin:round;stroke-miterlimit:10;" x1="416.701" y1="329.657" x2="424.813" y2="343.708"/>
		</g>
		<g>
			
				<line style="fill:none;stroke:#000000;stroke-width:15;stroke-linecap:round;stroke-linejoin:round;stroke-miterlimit:10;" x1="486.058" y1="209.527" x2="502.282" y2="209.527"/>
		</g>
		<g>
			
				<line style="fill:none;stroke:#000000;stroke-width:15;stroke-linecap:round;stroke-linejoin:round;stroke-miterlimit:10;" x1="416.701" y1="89.397" x2="424.813" y2="75.346"/>
		</g>
		<g>
			
				<line style="fill:none;stroke:#000000;stroke-width:15;stroke-linecap:round;stroke-linejoin:round;stroke-miterlimit:10;" x1="191.365" y1="119.472" x2="227.213" y2="140.17"/>
			
				<line style="fill:none;stroke:#000000;stroke-width:15;stroke-linecap:round;stroke-linejoin:round;stroke-miterlimit:10;" x1="467.474" y1="278.884" x2="503.322" y2="299.581"/>
		</g>
		<g>
			
				<line style="fill:none;stroke:#000000;stroke-width:15;stroke-linecap:round;stroke-linejoin:round;stroke-miterlimit:10;" x1="467.474" y1="140.17" x2="503.322" y2="119.472"/>
		</g>
		<path style="fill:none;stroke:#000000;stroke-width:15;stroke-linecap:round;stroke-linejoin:round;stroke-miterlimit:10;" d="&#10;&#9;&#9;&#9;M356.292,365.727c0.754-4.494,1.149-9.109,1.155-13.818c0.057-42.095-30.523-77.037-70.675-83.819&#10;&#9;&#9;&#9;c-2.173-0.367-3.872-2.064-4.244-4.237c-9.075-52.871-55.321-93.04-110.877-92.625c-26.713,0.199-51.245,9.908-70.397,25.869"/>
		<path style="fill:none;stroke:#000000;stroke-width:15;stroke-linecap:round;stroke-linejoin:round;stroke-miterlimit:10;" d="&#10;&#9;&#9;&#9;M78.449,222.934c-11.296,17.623-17.785,38.573-17.588,60.939c0.042,4.783,0.385,9.493,1.011,14.114&#10;&#9;&#9;&#9;c0.352,2.598-1.239,5.087-3.777,5.744c-29.497,7.634-51.182,34.676-50.583,66.697c0.691,36.963,31.509,66.28,68.478,66.28h59.921"/>
		<path style="fill:none;stroke:#000000;stroke-width:15;stroke-linecap:round;stroke-linejoin:round;stroke-miterlimit:10;" d="&#10;&#9;&#9;&#9;M504.383,430.763c-1.164-26.118-22.927-47.037-49.071-47.228c-23.335-0.17-42.966,15.81-48.38,37.427&#10;&#9;&#9;&#9;c-0.206,0.824-1.226,1.098-1.841,0.512c-4.36-4.154-10.261-6.703-16.758-6.703c-2.327,0-4.577,0.327-6.707,0.938&#10;&#9;&#9;&#9;c-0.763,0.219-1.51-0.404-1.407-1.191c0.358-2.739,0.482-5.552,0.348-8.418c-1.134-24.314-21.044-43.995-45.368-44.86&#10;&#9;&#9;&#9;c-26.818-0.954-48.859,20.504-48.859,47.109c0,0.01,0,0.021,0,0.031c0.001,0.995-1.198,1.508-1.884,0.787&#10;&#9;&#9;&#9;c-5.846-6.148-14.105-9.98-23.258-9.98c-0.194,0-0.388,0.002-0.581,0.005c-0.548,0.01-1.014-0.369-1.112-0.909&#10;&#9;&#9;&#9;c-4.418-24.355-25.92-42.759-51.643-42.349c-27.061,0.432-49.483,22.143-50.732,49.179c-0.16,3.474,0.023,6.876,0.518,10.176&#10;&#9;&#9;&#9;c0.081,0.538-0.234,1.042-0.75,1.214c-13.451,4.486-23.149,17.18-23.149,32.139c0,18.707,15.165,33.872,32.424,33.872l288.11,0&#10;&#9;&#9;&#9;c18.048,0,35.029-9.421,43.828-25.179C502.48,449.51,504.812,440.4,504.383,430.763z"/>
	</g>
</g>















</svg>
